<?xml version="1.0"?>
<svg xmlns="http://www.w3.org/2000/svg" xmlns:xlink="http://www.w3.org/1999/xlink" xmlns:svgjs="http://svgjs.com/svgjs" version="1.1" width="512" height="512" x="0" y="0" viewBox="0 0 24 24" style="enable-background:new 0 0 512 512" xml:space="preserve"><g><path xmlns="http://www.w3.org/2000/svg" d="M24,12A12,12,0,1,1,12,0,12.013,12.013,0,0,1,24,12ZM3,12a9,9,0,1,0,9-9A9.011,9.011,0,0,0,3,12Zm8.6,5.731,5.154-5.087a.9.9,0,0,0,0-1.288L11.6,6.269a.924.924,0,0,0-1.575.644V17.087A.924.924,0,0,0,11.6,17.731Z" fill="#ff4007" data-original="#000000"/></g></svg>
